<svg width="64" height="64" viewBox="0 0 64 64" fill="none" xmlns="http://www.w3.org/2000/svg">
<path fill-rule="evenodd" clip-rule="evenodd" d="M20.6058 32.2803C19.8139 33.0503 19.796 34.3165 20.566 35.1084L30.566 45.3942C30.9426 45.7815 31.4598 46 32 46C32.5402 46 33.0574 45.7815 33.434 45.3942L43.434 35.1084C44.204 34.3165 44.1861 33.0503 43.3942 32.2803C42.6022 31.5103 41.336 31.5282 40.566 32.3201L34 39.0737L34 20C34 18.8954 33.1046 18 32 18C30.8954 18 30 18.8954 30 20L30 39.0737L23.434 32.3201C22.664 31.5282 21.3978 31.5103 20.6058 32.2803Z" fill="#151515"/>
</svg>
