<svg width="64" height="64" viewBox="0 0 64 64" fill="none" xmlns="http://www.w3.org/2000/svg">
<path fill-rule="evenodd" clip-rule="evenodd" d="M43.3942 31.7197C44.1861 30.9497 44.204 29.6835 43.434 28.8916L33.434 18.6058C33.0574 18.2185 32.5402 18 32 18C31.4598 18 30.9426 18.2185 30.566 18.6058L20.566 28.8916C19.796 29.6835 19.8139 30.9497 20.6058 31.7197C21.3978 32.4897 22.664 32.4718 23.434 31.6799L30 24.9263L30 44C30 45.1046 30.8954 46 32 46C33.1046 46 34 45.1046 34 44L34 24.9263L40.566 31.6799C41.336 32.4718 42.6022 32.4897 43.3942 31.7197Z" fill="#151515"/>
</svg>
