<svg width="64" height="64" viewBox="0 0 64 64" fill="none" xmlns="http://www.w3.org/2000/svg">
<path fill-rule="evenodd" clip-rule="evenodd" d="M32 64C49.6731 64 64 49.6731 64 32C64 14.3269 49.6731 0 32 0C14.3269 0 0 14.3269 0 32C0 49.6731 14.3269 64 32 64Z" fill="#151515"/>
<path fill-rule="evenodd" clip-rule="evenodd" d="M20.9859 20.9857C21.7669 20.2046 23.0332 20.2046 23.8143 20.9857L32.0001 29.1715L40.1859 20.9857C40.9669 20.2046 42.2332 20.2046 43.0143 20.9857C43.7953 21.7667 43.7953 23.0331 43.0143 23.8141L34.8285 31.9999L43.0142 40.1856C43.7953 40.9667 43.7953 42.233 43.0142 43.0141C42.2332 43.7951 40.9669 43.7951 40.1858 43.0141L32.0001 34.8283L23.8142 43.0142C23.0332 43.7952 21.7669 43.7952 20.9858 43.0142C20.2048 42.2331 20.2048 40.9668 20.9858 40.1857L29.1716 31.9999L20.9859 23.8141C20.2048 23.0331 20.2048 21.7667 20.9859 20.9857Z" fill="white"/>
</svg>
