<svg width="64" height="64" viewBox="0 0 64 64" fill="none" xmlns="http://www.w3.org/2000/svg">
<path d="M57.98 33.1699C63.63 27.5199 63.63 18.3699 57.98 12.7199C52.98 7.71989 45.1 7.06989 39.35 11.1799L39.19 11.2899C37.75 12.3199 37.42 14.3199 38.45 15.7499C39.48 17.1799 41.48 17.5199 42.91 16.4899L43.07 16.3799C46.28 14.0899 50.67 14.4499 53.45 17.2399C56.6 20.3899 56.6 25.4899 53.45 28.6399L42.23 39.8799C39.08 43.0299 33.98 43.0299 30.83 39.8799C28.04 37.0899 27.68 32.6999 29.97 29.4999L30.08 29.3399C31.11 27.8999 30.77 25.8999 29.34 24.8799C27.91 23.8599 25.9 24.1899 24.88 25.6199L24.77 25.7799C20.65 31.5199 21.3 39.3999 26.3 44.3999C31.95 50.0499 41.1 50.0499 46.75 44.3999L57.98 33.1699ZM6.02003 30.8299C0.370032 36.4799 0.370032 45.6299 6.02003 51.2799C11.02 56.2799 18.9 56.9299 24.65 52.8199L24.81 52.7099C26.25 51.6799 26.58 49.6799 25.55 48.2499C24.52 46.8199 22.52 46.4799 21.09 47.5099L20.93 47.6199C17.72 49.9099 13.33 49.5499 10.55 46.7599C7.40003 43.5999 7.40003 38.4999 10.55 35.3499L21.77 24.1199C24.92 20.9699 30.02 20.9699 33.17 24.1199C35.96 26.9099 36.32 31.2999 34.03 34.5099L33.92 34.6699C32.89 36.1099 33.23 38.1099 34.66 39.1299C36.09 40.1499 38.1 39.8199 39.12 38.3899L39.23 38.2299C43.35 32.4799 42.7 24.5999 37.7 19.5999C32.05 13.9499 22.9 13.9499 17.25 19.5999L6.02003 30.8299Z" fill="#151515"/>
</svg>
